<svg viewBox="0 0 400 85" xmlns="http://www.w3.org/2000/svg" xmlns:xlink="http://www.w3.org/1999/xlink"><clipPath id="a"><path clip-rule="evenodd" d="m228.55 63.59a11.74 11.74 0 0 1 -2.54.34l-.64 8.21s4-.28 4.89-.5a25.5 25.5 0 0 0 7.68-2.89 31.12 31.12 0 0 0 9.76-8.75 25.48 25.48 0 0 0 3.3-6 28.91 28.91 0 0 0 1.5-7 27.78 27.78 0 0 0 -.81-10.35 25.07 25.07 0 0 0 -6.69-11.65l-6.08 6.42a28.94 28.94 0 0 1 2.87 3.85 20.29 20.29 0 0 1 2.27 6.91 15.48 15.48 0 0 1 .21 2.52c0 3.89-1.71 9.41-4.41 12.25a21.11 21.11 0 0 1 -8.68 6c-.97.27-1.89.47-2.63.64zm2.39-1.43a20.34 20.34 0 0 0 8.34-5.79c2.53-2.64 4.21-7.95 4.21-11.69a14.08 14.08 0 0 0 -.22-2.4 19.69 19.69 0 0 0 -2.18-6.66 12 12 0 0 0 -1.27-1.86c-.5-.63-1-1.24-1.52-1.88l-.4-.53 7.1-7.51.58.59a25.78 25.78 0 0 1 6.83 12 28.51 28.51 0 0 1 .84 10.57 29.81 29.81 0 0 1 -1.54 7.24 26.18 26.18 0 0 1 -3.38 6.21 31.48 31.48 0 0 1 -10 9 26.19 26.19 0 0 1 -7.88 3c-.49.12-1.76.25-2.92.36s-3 .23-3 .23l.76-9.85h.71a11.17 11.17 0 0 0 2.38-.32c.72-.23 1.62-.42 2.56-.71z"/></clipPath><clipPath id="b"><path d="m198.66 56.71-.28-.6a19.32 19.32 0 0 1 -1.25-3.2c-.3-1-.51-1.9-.7-2.69a22.15 22.15 0 0 1 -.59-3.65 28.79 28.79 0 0 1 .58-8.51 29.46 29.46 0 0 1 8.11-14.6 32.57 32.57 0 0 1 6-4.5 34.06 34.06 0 0 1 4.94-2.18l2.07 10.22-.55.26a18.34 18.34 0 0 0 -10.89 15.61 15.29 15.29 0 0 0 .32 4.75 21.59 21.59 0 0 0 1.22 3.78c.39.93 1.18 2.36 1.18 2.36z"/></clipPath><clipPath id="c"><path d="m257.47 57.3v-34.82h27.44l-.01 9.33h-14.96v4.47h11.92v9.34h-11.92v11.69z"/></clipPath><clipPath id="d"><path d="m305.5 33.71-.1-.68c-.19-1.35-1.15-2.18-3.61-2.18s-2.67.63-2.67 1.1c0 .24.14.6.88 1.07a12.81 12.81 0 0 0 3.47 1.31c4.75 1.22 7.92 2.22 9.41 3a9.33 9.33 0 0 1 5.36 8.59 10.7 10.7 0 0 1 -4.44 9.08c-2.92 2.14-6.92 3.17-11.91 3.17a17.58 17.58 0 0 1 -10.89-3.29 11 11 0 0 1 -4.65-8.59v-.82h11.9l.13.63a3.14 3.14 0 0 0 1.33 2 4.91 4.91 0 0 0 2.79.78c3.08 0 3.73-.82 3.74-1.65 0-.23-.14-.6-.86-1.05a12.34 12.34 0 0 0 -3.49-1.18c-4.63-1.13-7.82-2.14-9.43-3a9.61 9.61 0 0 1 -5.34-9 9.83 9.83 0 0 1 4.14-8.39c2.77-2 6.48-3 11-3 4.21 0 7.67 1 10.31 2.93a11.83 11.83 0 0 1 4.69 8.29l.13.9z"/></clipPath><clipPath id="e"><path d="m321.68 57.31v-34.83h28.7v9.33h-16.21v3.18h13.71l.01 9.34h-13.72v3.64h16.84v9.33z"/></clipPath><clipPath id="f"><path d="m352.94 22.48h32.06v10.3h-9.79l.01 24.53h-12.48l-.01-24.53h-9.79z"/></clipPath><clipPath id="g"><path d="m211.73 40.92a13.57 13.57 0 1 1 9.6 16.61 13.57 13.57 0 0 1 -9.6-16.61z"/></clipPath><clipPath id="h"><path clip-rule="evenodd" d="m32 59.59h-16.21v-33.25h15.89c8.94 0 13.43 2.8 13.42 8.35 0 3-1.44 5.44-4.34 7.26a7.12 7.12 0 0 1 4.07 2.77 8.06 8.06 0 0 1 1.47 4.85q0 10.02-14.3 10.02zm-17 .79v-34.82h16.68c9 0 14.21 2.84 14.21 9.15a8.73 8.73 0 0 1 -3.44 7 7.77 7.77 0 0 1 3 2.53 8.84 8.84 0 0 1 1.62 5.31c0 7.35-5.41 10.81-15.09 10.81z"/></clipPath><clipPath id="i"><path clip-rule="evenodd" d="m30.52 34.1h-3.84v5.53h4.53c2.49 0 3.74-1 3.74-2.91a2.17 2.17 0 0 0 -1.34-2.31 9.6 9.6 0 0 0 -3.09-.31zm3.37-.41a3 3 0 0 1 1.86 3c0 2.55-1.82 3.71-4.54 3.71h-5.32v-7.09h4.63a10.24 10.24 0 0 1 3.37.38z"/></clipPath><clipPath id="j"><path clip-rule="evenodd" d="m30.15 45.69h-3.47v6.13h4.76c3.14 0 4.72-1 4.71-3a2.54 2.54 0 0 0 -1.72-2.63 13 13 0 0 0 -4.28-.5zm4.58-.28a3.34 3.34 0 0 1 2.21 3.38c0 2.74-2.28 3.83-5.5 3.83h-5.55v-7.72h4.26a14.46 14.46 0 0 1 4.58.51z"/></clipPath><clipPath id="k"><path clip-rule="evenodd" d="m30.52 34.1a9.6 9.6 0 0 1 3.09.33 2.17 2.17 0 0 1 1.39 2.31c0 1.93-1.25 2.91-3.74 2.91h-4.58v-5.54zm2.8 1.07c.49.18.84.59.84 1.57 0 1.33-.7 2.11-2.95 2.11h-3.74v-4h3.05a9 9 0 0 1 2.8.32z"/></clipPath><clipPath id="l"><path clip-rule="evenodd" d="m30.15 45.69a13 13 0 0 1 4.28.47 2.54 2.54 0 0 1 1.72 2.63c0 2-1.57 3-4.71 3h-4.76v-6.1zm4 1.2a1.79 1.79 0 0 1 1.2 1.9c0 1.31-.87 2.25-3.92 2.25h-4v-4.55h2.67a13.38 13.38 0 0 1 4.06.4z"/></clipPath><clipPath id="m"><path d="m51.1 60.38v-34.82h28.68v9.33h-16.2v3.17h13.72v9.34h-13.72v3.64h16.85l-.01 9.34z"/></clipPath><clipPath id="n"><path d="m84.1 60.38v-34.82h12.49v11.22l8.71-.01v-11.21h12.48v34.82h-12.48v-12.88h-8.71v12.88z"/></clipPath><clipPath id="o"><path clip-rule="evenodd" d="m137.21 48h-3.34v11.6h-10.87v-33.26h15.7c5.26 0 9 .73 11.31 2.17s3.41 3.89 3.41 7.3c0 4.41-1.85 7.11-5.58 8.13a9.84 9.84 0 0 1 4.15 2.4c1 1.23 1.48 3.37 1.47 6.41 0 2.59 0 4.09.1 4.54.12.85.49 1.28 1.06 1.28v1h-11a19.31 19.31 0 0 1 -.56-5.82c0-2.37-.39-3.92-1.15-4.67s-2.36-1.08-4.7-1.08zm-2.54.79v11.59h-12.48v-34.82h16.5c5.29 0 9.25.72 11.73 2.29s3.78 4.35 3.78 8c0 3.9-1.39 6.68-4.25 8.16a7.81 7.81 0 0 1 2.65 1.87c1.16 1.45 1.66 3.84 1.65 6.91 0 2.53 0 4 .09 4.42a1.28 1.28 0 0 0 .18.58h.89v2.6h-12.41l-.17-.52a19.64 19.64 0 0 1 -.61-6.09c0-2.38-.41-3.62-.92-4.09s-1.77-.89-4.11-.89z"/></clipPath><clipPath id="p"><path clip-rule="evenodd" d="m133.87 34.1v6.6h4.31c3.44 0 5.18-1 5.18-3.14q0-3.47-4.4-3.45zm5.09-.79c3.18 0 5.18 1.35 5.18 4.25s-2.47 3.93-6 3.93h-5.09v-8.18z"/></clipPath><clipPath id="q"><path clip-rule="evenodd" d="m133.87 34.1h5.13q4.39 0 4.4 3.45c0 2.1-1.74 3.14-5.18 3.14h-4.31zm5.09.79c2.68 0 3.6 1 3.6 2.67 0 1.35-1 2.35-4.38 2.36h-3.5v-5z"/></clipPath><clipPath id="r"><path clip-rule="evenodd" d="m167.26 59.59h-10.66l11.91-33.25h11.08l11.91 33.26h-10.85l-1.29-4.39h-10.85zm-11.79.79 12.53-34.82h12.19l12.48 34.82h-12.6l-1.3-4.38h-9.66l-1.25 4.39z"/></clipPath><clipPath id="s"><path clip-rule="evenodd" d="m177.47 48.27-3.47-11.91-3.37 11.91zm-7.93.8 4.4-15.55 4.58 15.55z"/></clipPath><clipPath id="t"><path clip-rule="evenodd" d="m177.47 48.27h-6.88l3.41-11.91zm-5.83-.78 2.36-8.27 2.45 8.27z"/></clipPath><g clip-path="url(#a)" fill-rule="evenodd"><path d="m224.63 73.55-.25-1.26 33.84-6.58.24 1.26z" fill="#231f20"/><path d="m224.38 72.29-.24-1.27 33.82-6.58.26 1.27z" fill="#2c2a2b"/><path d="m224.14 71.02-.26-1.26 33.85-6.57.23 1.25z" fill="#353435"/><path d="m223.88 69.76-.23-1.26 33.84-6.57.24 1.26z" fill="#3e3d3f"/><path d="m223.65 68.5-.24-1.25 33.82-6.58.26 1.26z" fill="#454547"/><path d="m223.41 67.25-.25-1.27 33.83-6.57.24 1.26z" fill="#4c4c4e"/><path d="m223.16 65.98-.25-1.25 33.83-6.58.25 1.26z" fill="#535355"/><path d="m222.91 64.73-.25-1.26 33.84-6.58.24 1.26z" fill="#595a5c"/><path d="m222.66 63.47-.24-1.27 33.84-6.55.24 1.24z" fill="#606163"/><path d="m222.42 62.2-.25-1.25 33.84-6.58.25 1.28z" fill="#666769"/><path d="m222.17 60.95-.23-1.26 33.83-6.57.24 1.25z" fill="#6c6d70"/><path d="m221.94 59.69-.25-1.26 33.83-6.57.25 1.26z" fill="#727376"/><path d="m221.69 58.43-.24-1.26 33.83-6.58.24 1.27z" fill="#77797c"/><path d="m221.45 57.17-.25-1.26 33.83-6.57.25 1.25z" fill="#7d7f81"/><path d="m221.2 55.91-.24-1.26 33.83-6.58.24 1.27z" fill="#828487"/><path d="m220.96 54.65-.25-1.26 33.84-6.58.24 1.26z" fill="#888a8d"/><path d="m220.71 53.39-.24-1.26 33.83-6.58.25 1.26z" fill="#8e9092"/><path d="m220.47 52.13-.25-1.25 33.83-6.58.25 1.25z" fill="#939598"/><path d="m220.22 50.88-.25-1.27 33.84-6.58.24 1.27z" fill="#999b9e"/><path d="m219.97 49.61-.24-1.26 33.83-6.58.25 1.26z" fill="#9fa1a4"/><path d="m219.73 48.35-.25-1.25 33.85-6.59.23 1.26z" fill="#a5a7a9"/><path d="m219.48 47.1-.23-1.26 33.82-6.58.26 1.25z" fill="#abadaf"/><path d="m219.25 45.84-.26-1.26 33.85-6.59.23 1.27z" fill="#b1b3b5"/><path d="m218.99 44.58-.24-1.27 33.84-6.57.25 1.25z" fill="#b7b9bb"/><path d="m218.75 43.31-.25-1.25 33.85-6.58.24 1.26z" fill="#bdbfc1"/><path d="m218.5 42.06-.24-1.26 33.84-6.58.25 1.26z" fill="#c3c5c7"/><path d="m218.26 40.8-.25-1.27 33.84-6.57.25 1.26z" fill="#cacbcd"/><path d="m218.01 39.53-.25-1.26 33.84-6.57.25 1.26z" fill="#d0d1d3"/><path d="m217.76 38.27-.24-1.25 33.84-6.58.24 1.26z" fill="#d6d7d9"/><path d="m217.52 37.02-.23-1.26 33.83-6.58.24 1.26z" fill="#dcdedf"/><path d="m217.29 35.76-.25-1.26 33.84-6.58.24 1.26z" fill="#e3e4e5"/><path d="m217.04 34.5-.25-1.26 33.83-6.57.26 1.25z" fill="#e9eaeb"/><path d="m216.79 33.24-.24-1.26 33.83-6.57.24 1.26z" fill="#eff0f0"/><path d="m216.55 31.98-.25-1.26 33.84-6.57.24 1.26z" fill="#f6f6f6"/><path d="m216.3 30.72-.24-1.25 33.83-6.58.25 1.26z" fill="#fff"/></g><path d="m228.55 63.59a11.74 11.74 0 0 1 -2.54.34l-.64 8.21s4-.28 4.89-.5a25.5 25.5 0 0 0 7.68-2.89 31.12 31.12 0 0 0 9.76-8.75 25.48 25.48 0 0 0 3.3-6 28.91 28.91 0 0 0 1.5-7 27.78 27.78 0 0 0 -.81-10.35 25.07 25.07 0 0 0 -6.69-11.65l-6.08 6.42a28.94 28.94 0 0 1 2.87 3.85 20.29 20.29 0 0 1 2.27 6.91 15.48 15.48 0 0 1 .21 2.52c0 3.89-1.71 9.41-4.41 12.25a21.11 21.11 0 0 1 -8.68 6c-.97.27-1.89.47-2.63.64z" fill="none"/><path d="m230.94 62.16a20.34 20.34 0 0 0 8.34-5.79c2.53-2.64 4.21-7.95 4.21-11.69a14.08 14.08 0 0 0 -.22-2.4 19.69 19.69 0 0 0 -2.18-6.66 12 12 0 0 0 -1.27-1.86c-.5-.63-1-1.24-1.52-1.88l-.4-.53 7.1-7.51.58.59a25.78 25.78 0 0 1 6.83 12 28.51 28.51 0 0 1 .84 10.57 29.81 29.81 0 0 1 -1.54 7.24 26.18 26.18 0 0 1 -3.38 6.21 31.48 31.48 0 0 1 -10 9 26.19 26.19 0 0 1 -7.88 3c-.49.12-1.76.25-2.92.36s-3 .23-3 .23l.76-9.85h.71a11.17 11.17 0 0 0 2.38-.32c.72-.23 1.62-.42 2.56-.71z" fill="none"/><path d="m228.55 63.59a11.74 11.74 0 0 1 -2.54.34l-.64 8.21s4-.28 4.89-.5a25.5 25.5 0 0 0 7.68-2.89 31.12 31.12 0 0 0 9.76-8.75 25.48 25.48 0 0 0 3.3-6 28.91 28.91 0 0 0 1.5-7 27.78 27.78 0 0 0 -.81-10.35 25.07 25.07 0 0 0 -6.69-11.65l-6.08 6.42a28.94 28.94 0 0 1 2.87 3.85 20.29 20.29 0 0 1 2.27 6.91 15.48 15.48 0 0 1 .21 2.52c0 3.89-1.71 9.41-4.41 12.25a21.11 21.11 0 0 1 -8.68 6c-.97.27-1.89.47-2.63.64z" fill="#231f20"/><g clip-path="url(#b)"><path d="m197.7 56.89-.2-1.02 24.75-4.8.19 1.01z" fill="#231f20"/><path d="m197.5 55.87-.19-1 24.74-4.81.2 1.01z" fill="#2c2a2b"/><path d="m197.31 54.87-.2-1.01 24.74-4.81.2 1.01z" fill="#353435"/><path d="m197.11 53.86-.19-1.01 24.73-4.81.2 1.01z" fill="#3e3d3f"/><path d="m196.92 52.85-.2-1 24.74-4.82.19 1.01z" fill="#454547"/><path d="m196.72 51.85-.19-1.02 24.73-4.81.2 1.01z" fill="#4c4c4e"/><path d="m196.53 50.83-.2-1 24.74-4.81.19 1z" fill="#535355"/><path d="m196.33 49.83-.19-1.02 24.73-4.81.2 1.02z" fill="#595a5c"/><path d="m196.14 48.81-.2-1.01 24.73-4.82.2 1.02z" fill="#606163"/><path d="m195.94 47.8-.2-1.01 24.74-4.81.19 1z" fill="#666769"/><path d="m195.74 46.79-.2-1 24.74-4.81.2 1z" fill="#6c6d70"/><path d="m195.54 45.79-.19-1.02 24.73-4.8.2 1.01z" fill="#727376"/><path d="m195.35 44.77-.19-1.01 24.74-4.8.18 1.01z" fill="#77797c"/><path d="m195.16 43.76-.21-1 24.74-4.81.21 1.01z" fill="#7d7f81"/><path d="m194.95 42.76-.19-1.01 24.72-4.81.21 1.01z" fill="#828487"/><path d="m194.76 41.75-.19-1.02 24.73-4.8.18 1.01z" fill="#888a8d"/><path d="m194.57 40.73-.2-1 24.73-4.81.2 1.01z" fill="#8e9092"/><path d="m194.37 39.73-.2-1.01 24.74-4.81.19 1.01z" fill="#939598"/><path d="m194.17 38.72-.2-1.01 24.75-4.81.19 1.01z" fill="#999b9e"/><path d="m193.97 37.71-.18-1.01 24.72-4.82.21 1.02z" fill="#9fa1a4"/><path d="m193.79 36.7-.21-1.01 24.74-4.81.19 1z" fill="#a5a7a9"/><path d="m193.58 35.69-.2-1 24.76-4.83.18 1.02z" fill="#abadaf"/><path d="m193.38 34.69-.19-1.01 24.73-4.81.22.99z" fill="#b1b3b5"/><path d="m193.19 33.68-.2-1.02 24.75-4.81.18 1.02z" fill="#b7b9bb"/><path d="m192.99 32.66-.19-1.01 24.74-4.81.2 1.01z" fill="#bdbfc1"/><path d="m192.8 31.65-.2-1 24.74-4.81.2 1z" fill="#c3c5c7"/><path d="m192.6 30.65-.19-1.02 24.74-4.81.19 1.02z" fill="#cacbcd"/><path d="m192.41 29.63-.2-1.01 24.74-4.8.2 1z" fill="#d0d1d3"/><path d="m192.21 28.62-.2-1.01 24.74-4.81.2 1.02z" fill="#d6d7d9"/><path d="m192.01 27.61-.2-1 24.74-4.81.2 1z" fill="#dcdedf"/><path d="m191.81 26.61-.19-1.01 24.74-4.81.19 1.01z" fill="#e3e4e5"/><path d="m191.62 25.6-.19-1.01 24.73-4.81.2 1.01z" fill="#e9eaeb"/><path d="m191.43 24.59-.2-1.01 24.74-4.81.19 1.01z" fill="#eff0f0"/><path d="m191.23 23.58-.2-1.02 24.74-4.8.2 1.01z" fill="#f6f6f6"/><path d="m191.03 22.56-.19-1 24.73-4.81.2 1.01z" fill="#fff"/></g><g fill-rule="evenodd"><path d="m207.64 53.28a22.8 22.8 0 0 1 -2-5.5 16.76 16.76 0 0 1 -.33-5 19.17 19.17 0 0 1 11.35-16.3l-1.78-8.68a27.46 27.46 0 0 0 -3.94 1.83 30.65 30.65 0 0 0 -5.86 4.4 28.39 28.39 0 0 0 -7.87 14.16 28 28 0 0 0 -.59 8.33 21.59 21.59 0 0 0 .59 3.51 26.29 26.29 0 0 0 1.87 5.72z" fill="#231f20"/><path d="m245.14 15.64.81.3.51.55-8.38 11.12-2.19-1.43z" fill="#231f20"/><path d="m236.92 12 .86.13.59.44-5.87 12.59-2.44-.92z" fill="#fff200"/><path d="m227.89 13.47.71-.17.56.11-1.76 9.96-2.13.12z" fill="#ec008c"/><path d="m220.35 13.75.64-.38.56-.07 1.39 10.02-1.98.76z" fill="#00aeef"/></g><g clip-path="url(#c)"><path d="m257.92 59.63-.19-1.03 32.95-6.4.21 1.03z" fill="#231f20"/><path d="m257.73 58.6-.19-1.02 32.96-6.4.18 1.02z" fill="#2c2a2b"/><path d="m257.54 57.58-.21-1.02 32.96-6.41.21 1.03z" fill="#353435"/><path d="m257.33 56.56-.2-1.02 32.97-6.41.19 1.02z" fill="#3e3d3f"/><path d="m257.13 55.54-.19-1.03 32.95-6.41.21 1.03z" fill="#454547"/><path d="m256.94 54.51-.21-1.03 32.96-6.41.2 1.03z" fill="#4c4c4e"/><path d="m256.73 53.48-.2-1.03 32.96-6.4.2 1.02z" fill="#535355"/><path d="m256.53 52.45-.19-1.02 32.95-6.41.2 1.03z" fill="#595a5c"/><path d="m256.34 51.43-.21-1.03 32.97-6.41.19 1.03z" fill="#606163"/><path d="m256.13 50.4-.2-1.02 32.96-6.41.21 1.02z" fill="#666769"/><path d="m255.93 49.38-.19-1.03 32.96-6.4.19 1.02z" fill="#6c6d70"/><path d="m255.74 48.35-.21-1.02 32.96-6.41.21 1.03z" fill="#727376"/><path d="m255.53 47.33-.19-1.02 32.96-6.42.19 1.03z" fill="#77797c"/><path d="m255.34 46.31-.21-1.03 32.96-6.4.21 1.01z" fill="#7d7f81"/><path d="m255.13 45.28-.19-1.02 32.96-6.42.19 1.04z" fill="#828487"/><path d="m254.94 44.26-.2-1.03 32.96-6.41.2 1.02z" fill="#888a8d"/><path d="m254.74 43.23-.19-1.03 32.96-6.41.19 1.03z" fill="#8e9092"/><path d="m254.55 42.2-.21-1.03 32.95-6.4.22 1.02z" fill="#939598"/><path d="m254.34 41.17-.21-1.02 32.97-6.41.19 1.03z" fill="#999b9e"/><path d="m254.13 40.15-.19-1.02 32.96-6.41.2 1.02z" fill="#9fa1a4"/><path d="m253.94 39.13-.19-1.03 32.95-6.4.2 1.02z" fill="#a5a7a9"/><path d="m253.75 38.1-.21-1.03 32.97-6.4.19 1.03z" fill="#abadaf"/><path d="m253.54 37.07-.19-1.02 32.96-6.41.2 1.03z" fill="#b1b3b5"/><path d="m253.35 36.05-.2-1.03 32.96-6.41.2 1.03z" fill="#b7b9bb"/><path d="m253.15 35.02-.2-1.02 32.95-6.41.21 1.02z" fill="#bdbfc1"/><path d="m252.95 34-.21-1.03 32.95-6.41.21 1.03z" fill="#c3c5c7"/><path d="m252.74 32.97-.19-1.02 32.95-6.41.19 1.02z" fill="#cacbcd"/><path d="m252.55 31.95-.2-1.03 32.95-6.41.2 1.03z" fill="#d0d1d3"/><path d="m252.35 30.92-.19-1.03 32.94-6.4.2 1.02z" fill="#d6d7d9"/><path d="m252.16 29.89-.21-1.02 32.95-6.41.2 1.03z" fill="#dcdedf"/><path d="m251.95 28.87-.2-1.02 32.96-6.41.19 1.02z" fill="#e3e4e5"/><path d="m251.75 27.85-.21-1.03 32.97-6.41.2 1.03z" fill="#e9eaeb"/><path d="m251.54 26.82-.19-1.02 32.96-6.42.2 1.03z" fill="#eff0f0"/><path d="m251.35 25.8-.19-1.03 32.95-6.41.2 1.02z" fill="#f6f6f6"/><path d="m251.16 24.77-.2-1.03 32.96-6.4.19 1.02z" fill="#fff"/></g><path d="m269.15 56.51h-10.89v-33.24h25.86v7.76h-14.96v6.04l11.9.01v7.76h-11.9z" fill="#faa820" fill-rule="evenodd"/><g clip-path="url(#d)"><path d="m289.14 61.23-.19-1.03 32.49-6.33.2 1.05z" fill="#231f20"/><path d="m288.95 60.2-.22-1.04 32.5-6.31.21 1.02z" fill="#2c2a2b"/><path d="m288.73 59.16-.19-1.04 32.49-6.32.2 1.05z" fill="#353435"/><path d="m288.54 58.12-.2-1.03 32.48-6.32.21 1.03z" fill="#3e3d3f"/><path d="m288.34 57.09-.21-1.03 32.5-6.32.19 1.03z" fill="#454547"/><path d="m288.13 56.06-.2-1.04 32.5-6.32.2 1.04z" fill="#4c4c4e"/><path d="m287.93 55.02-.2-1.03 32.5-6.32.2 1.03z" fill="#535355"/><path d="m287.73 53.99-.19-1.04 32.49-6.32.2 1.04z" fill="#595a5c"/><path d="m287.54 52.95-.21-1.03 32.49-6.33.21 1.04z" fill="#606163"/><path d="m287.33 51.92-.2-1.04 32.5-6.31.19 1.02z" fill="#666769"/><path d="m287.13 50.88-.21-1.03 32.51-6.32.2 1.04z" fill="#6c6d70"/><path d="m286.92 49.85-.2-1.04 32.5-6.32.21 1.04z" fill="#727376"/><path d="m286.72 48.81-.2-1.03 32.5-6.32.2 1.03z" fill="#77797c"/><path d="m286.52 47.78-.19-1.03 32.49-6.32.2 1.03z" fill="#7d7f81"/><path d="m286.33 46.75-.2-1.04 32.5-6.32.19 1.04z" fill="#828487"/><path d="m286.13 45.71-.2-1.03 32.48-6.32.22 1.03z" fill="#888a8d"/><path d="m285.93 44.68-.2-1.03 32.49-6.33.19 1.04z" fill="#8e9092"/><path d="m285.73 43.65-.21-1.05 32.49-6.32.21 1.04z" fill="#939598"/><path d="m285.52 42.6-.2-1.02 32.49-6.32.2 1.02z" fill="#999b9e"/><path d="m285.32 41.58-.2-1.04 32.49-6.32.2 1.04z" fill="#9fa1a4"/><path d="m285.12 40.54-.21-1.04 32.5-6.31.2 1.03z" fill="#a5a7a9"/><path d="m284.91 39.5-.2-1.03 32.49-6.32.21 1.04z" fill="#abadaf"/><path d="m284.71 38.47-.19-1.04 32.49-6.31.19 1.03z" fill="#b1b3b5"/><path d="m284.52 37.43-.21-1.03 32.49-6.33.21 1.05z" fill="#b7b9bb"/><path d="m284.31 36.4-.2-1.04 32.48-6.32.21 1.03z" fill="#bdbfc1"/><path d="m284.11 35.36-.2-1.03 32.5-6.32.18 1.03z" fill="#c3c5c7"/><path d="m283.91 34.33-.2-1.04 32.49-6.32.21 1.04z" fill="#cacbcd"/><path d="m283.71 33.29-.2-1.03 32.49-6.32.2 1.03z" fill="#d0d1d3"/><path d="m283.51 32.26-.21-1.04 32.5-6.32.2 1.04z" fill="#d6d7d9"/><path d="m283.3 31.22-.2-1.03 32.5-6.33.2 1.04z" fill="#dcdedf"/><path d="m283.1 30.19-.19-1.04 32.49-6.31.2 1.02z" fill="#e3e4e5"/><path d="m282.91 29.15-.21-1.03 32.5-6.32.2 1.04z" fill="#e9eaeb"/><path d="m282.7 28.12-.19-1.03 32.49-6.33.2 1.04z" fill="#eff0f0"/><path d="m282.51 27.09-.21-1.04 32.51-6.31.19 1.02z" fill="#f6f6f6"/><path d="m282.3 26.05-.19-1.04 32.48-6.31.22 1.04z" fill="#fff"/></g><path d="m316.52 32.92h-10.34c-.27-1.91-1.74-2.86-4.39-2.86-2.3 0-3.46.63-3.46 1.9s1.66 2.3 4.95 3.14a52.58 52.58 0 0 1 9.23 2.9 8.53 8.53 0 0 1 4.94 7.9 9.92 9.92 0 0 1 -4.11 8.44q-4.11 3-11.45 3a16.71 16.71 0 0 1 -10.39-3.13 10.22 10.22 0 0 1 -4.33-8h10.43a3.86 3.86 0 0 0 1.66 2.54 5.58 5.58 0 0 0 3.23.92c3 0 4.52-.82 4.52-2.44 0-1.27-1.64-2.3-4.94-3.1q-7-1.7-9.22-3a8.84 8.84 0 0 1 -5-8.22 9.07 9.07 0 0 1 3.83-7.75c2.58-1.92 6.12-2.88 10.58-2.87q6.13 0 9.82 2.77a11 11 0 0 1 4.44 7.86z" fill="#faa820" fill-rule="evenodd"/><g clip-path="url(#e)"><path d="m322.77 62.79-.22-1.12 34.14-6.64.24 1.12z" fill="#231f20"/><path d="m322.55 61.67-.22-1.11 34.16-6.64.2 1.11z" fill="#2c2a2b"/><path d="m322.33 60.56-.22-1.11 34.18-6.65.2 1.12z" fill="#353435"/><path d="m322.11 59.45-.21-1.12 34.15-6.64.24 1.11z" fill="#3e3d3f"/><path d="m321.9 58.33-.22-1.11 34.16-6.65.21 1.12z" fill="#454547"/><path d="m321.68 57.22-.22-1.12 34.16-6.65.22 1.12z" fill="#4c4c4e"/><path d="m321.46 56.1-.21-1.12 34.16-6.64.21 1.11z" fill="#535355"/><path d="m321.25 54.98-.22-1.12 34.15-6.63.23 1.11z" fill="#595a5c"/><path d="m321.03 53.86-.22-1.11 34.16-6.65.21 1.13z" fill="#606163"/><path d="m320.81 52.75-.21-1.12 34.15-6.63.22 1.1z" fill="#666769"/><path d="m320.6 51.63-.22-1.11 34.15-6.64.22 1.12z" fill="#6c6d70"/><path d="m320.38 50.52-.22-1.12 34.16-6.64.21 1.12z" fill="#727376"/><path d="m320.16 49.4-.22-1.11 34.16-6.65.22 1.12z" fill="#77797c"/><path d="m319.94 48.29-.22-1.12 34.16-6.64.22 1.11z" fill="#7d7f81"/><path d="m319.72 47.17-.21-1.11 34.16-6.64.21 1.11z" fill="#828487"/><path d="m319.51 46.06-.22-1.12 34.17-6.64.21 1.12z" fill="#888a8d"/><path d="m319.29 44.94-.22-1.12 34.16-6.64.23 1.12z" fill="#8e9092"/><path d="m319.07 43.82-.22-1.11 34.16-6.65.22 1.12z" fill="#939598"/><path d="m318.85 42.71-.21-1.11 34.16-6.64.21 1.1z" fill="#999b9e"/><path d="m318.64 41.6-.21-1.12 34.16-6.64.21 1.12z" fill="#9fa1a4"/><path d="m318.43 40.48-.22-1.12 34.15-6.64.23 1.12z" fill="#a5a7a9"/><path d="m318.21 39.36-.22-1.11 34.15-6.64.22 1.11z" fill="#abadaf"/><path d="m317.99 38.25-.21-1.12 34.16-6.64.2 1.12z" fill="#b1b3b5"/><path d="m317.78 37.13-.21-1.12 34.13-6.63.24 1.11z" fill="#b7b9bb"/><path d="m317.57 36.01-.23-1.11 34.16-6.64.2 1.12z" fill="#bdbfc1"/><path d="m317.34 34.9-.21-1.12 34.15-6.64.22 1.12z" fill="#c3c5c7"/><path d="m317.13 33.78-.23-1.12 34.16-6.63.22 1.11z" fill="#cacbcd"/><path d="m316.9 32.66-.21-1.11 34.16-6.63.21 1.11z" fill="#d0d1d3"/><path d="m316.69 31.55-.23-1.12 34.16-6.63.23 1.12z" fill="#d6d7d9"/><path d="m316.46 30.43-.2-1.11 34.16-6.64.2 1.12z" fill="#dcdedf"/><path d="m316.26 29.32-.22-1.12 34.15-6.64.23 1.12z" fill="#e3e4e5"/><path d="m316.04 28.2-.22-1.11 34.16-6.64.21 1.11z" fill="#e9eaeb"/><path d="m315.82 27.09-.22-1.12 34.17-6.64.21 1.12z" fill="#eff0f0"/><path d="m315.6 25.97-.21-1.11 34.15-6.64.23 1.11z" fill="#f6f6f6"/><path d="m315.39 24.86-.22-1.12 34.15-6.64.22 1.12z" fill="#fff"/></g><path d="m350.22 56.51h-27.74v-33.24h27.1v7.76h-16.2v4.75h13.7l.01 7.76h-13.71v5.21l16.84.01z" fill="#faa820" fill-rule="evenodd"/><g clip-path="url(#f)"><path d="m358.36 60.57-.21-1.08 32.8-6.37.22 1.08z" fill="#231f20"/><path d="m358.15 59.49-.22-1.07 32.82-6.38.2 1.08z" fill="#2c2a2b"/><path d="m357.93 58.42-.21-1.08 32.82-6.39.21 1.09z" fill="#353435"/><path d="m357.72 57.34-.2-1.07 32.8-6.39.22 1.07z" fill="#3e3d3f"/><path d="m357.52 56.27-.22-1.09 32.82-6.37.2 1.07z" fill="#454547"/><path d="m357.3 55.18-.22-1.07 32.83-6.38.21 1.08z" fill="#4c4c4e"/><path d="m357.08 54.11-.2-1.08 32.83-6.38.2 1.08z" fill="#535355"/><path d="m356.88 53.03-.19-1.08 32.81-6.38.21 1.08z" fill="#595a5c"/><path d="m356.69 51.95-.22-1.07 32.81-6.39.22 1.08z" fill="#606163"/><path d="m356.47 50.88-.21-1.08 32.82-6.38.2 1.07z" fill="#666769"/><path d="m356.26 49.8-.21-1.08 32.81-6.39.22 1.09z" fill="#6c6d70"/><path d="m356.05 48.72-.21-1.07 32.82-6.38.2 1.06z" fill="#727376"/><path d="m355.84 47.65-.21-1.09 32.81-6.38.22 1.09z" fill="#77797c"/><path d="m355.63 46.56-.2-1.07 32.81-6.39.2 1.08z" fill="#7d7f81"/><path d="m355.43 45.49-.23-1.09 32.82-6.37.22 1.07z" fill="#828487"/><path d="m355.2 44.4-.21-1.08 32.82-6.37.21 1.08z" fill="#888a8d"/><path d="m354.99 43.32-.2-1.07 32.82-6.38.2 1.08z" fill="#8e9092"/><path d="m354.79 42.25-.22-1.08 32.82-6.37.22 1.07z" fill="#939598"/><path d="m354.57 41.17-.19-1.08 32.81-6.37.2 1.08z" fill="#999b9e"/><path d="m354.38 40.09-.21-1.07 32.81-6.38.21 1.08z" fill="#9fa1a4"/><path d="m354.17 39.02-.23-1.08 32.83-6.39.21 1.09z" fill="#a5a7a9"/><path d="m353.94 37.94-.2-1.07 32.82-6.39.21 1.07z" fill="#abadaf"/><path d="m353.74 36.87-.21-1.09 32.83-6.37.2 1.07z" fill="#b1b3b5"/><path d="m353.53 35.78-.22-1.09 32.83-6.37.22 1.09z" fill="#b7b9bb"/><path d="m353.31 34.69-.2-1.06 32.83-6.38.2 1.07z" fill="#bdbfc1"/><path d="m353.11 33.63-.21-1.08 32.83-6.38.21 1.08z" fill="#c3c5c7"/><path d="m352.9 32.55-.2-1.07 32.8-6.39.23 1.08z" fill="#cacbcd"/><path d="m352.7 31.48-.21-1.09 32.82-6.37.19 1.07z" fill="#d0d1d3"/><path d="m352.49 30.39-.22-1.07 32.82-6.39.22 1.09z" fill="#d6d7d9"/><path d="m352.27 29.32-.21-1.07 32.83-6.39.2 1.07z" fill="#dcdedf"/><path d="m352.06 28.25-.2-1.09 32.81-6.38.22 1.08z" fill="#e3e4e5"/><path d="m351.86 27.16-.22-1.08 32.83-6.38.2 1.08z" fill="#e9eaeb"/><path d="m351.64 26.08-.19-1.07 32.8-6.38.22 1.07z" fill="#eff0f0"/><path d="m351.45 25.01-.22-1.09 32.82-6.37.2 1.08z" fill="#f6f6f6"/><path d="m351.23 23.92-.21-1.06 32.82-6.38.21 1.07z" fill="#fff"/></g><path d="m353.73 31.99v-8.72h30.47l.01 8.72h-9.78v24.52h-10.9v-24.52z" fill="#faa820" fill-rule="evenodd"/><path d="m211.73 40.92a13.57 13.57 0 1 1 9.6 16.61 13.57 13.57 0 0 1 -9.6-16.61z" fill="#231f20"/><g clip-path="url(#g)"><path d="m192.79 29.88h31.84l.01 15.39h-31.86z" fill="#00aeef"/><path d="m224.58 29.88h31.86v15.39h-31.85z" fill="#ec008c"/><path d="m192.79 45.16h31.85l-.01 15.39h-31.84z" fill="#fff200"/><path d="m224.58 45.16h31.86v15.39h-31.86z" fill="#231f20"/></g><g clip-path="url(#h)" fill-rule="evenodd"><path d="m15.73 64.15-.2-1.07 34.77-6.75.2 1.06z" fill="#231f20"/><path d="m15.53 63.08-.2-1.07 34.76-6.75.21 1.07z" fill="#2c2a2b"/><path d="m15.33 62.01-.21-1.06 34.76-6.75.21 1.06z" fill="#353435"/><path d="m15.12 60.95-.21-1.07 34.76-6.76.21 1.08z" fill="#3e3d3f"/><path d="m14.91 59.88-.21-1.06 34.77-6.76.2 1.06z" fill="#454547"/><path d="m14.7 58.82-.21-1.08 34.77-6.75.21 1.07z" fill="#4c4c4e"/><path d="m14.49 57.74-.2-1.05 34.76-6.77.21 1.07z" fill="#535355"/><path d="m14.29 56.69-.21-1.07 34.76-6.76.21 1.06z" fill="#595a5c"/><path d="m14.08 55.62-.21-1.07 34.77-6.76.2 1.07z" fill="#606163"/><path d="m13.87 54.55-.21-1.07 34.77-6.76.21 1.07z" fill="#666769"/><path d="m13.66 53.48-.2-1.06 34.77-6.76.2 1.06z" fill="#6c6d70"/><path d="m13.46 52.42-.22-1.07 34.77-6.76.22 1.07z" fill="#727376"/><path d="m13.24 51.35-.2-1.07 34.76-6.76.21 1.07z" fill="#77797c"/><path d="m13.04 50.28-.2-1.07 34.75-6.75.21 1.06z" fill="#7d7f81"/><path d="m12.84 49.21-.21-1.06 34.76-6.76.2 1.07z" fill="#828487"/><path d="m12.63 48.15-.21-1.07 34.77-6.76.2 1.07z" fill="#888a8d"/><path d="m12.42 47.08-.21-1.07 34.77-6.75.21 1.06z" fill="#8e9092"/><path d="m12.21 46.01-.21-1.06 34.77-6.75.21 1.06z" fill="#939598"/><path d="m12 44.95-.2-1.06 34.77-6.77.2 1.08z" fill="#999b9e"/><path d="m11.8 43.89-.21-1.07 34.76-6.76.22 1.06z" fill="#9fa1a4"/><path d="m11.59 42.82-.21-1.07 34.76-6.76.21 1.07z" fill="#a5a7a9"/><path d="m11.38 41.75-.2-1.06 34.76-6.76.2 1.06z" fill="#abadaf"/><path d="m11.18 40.69-.22-1.08 34.77-6.75.21 1.07z" fill="#b1b3b5"/><path d="m10.96 39.61-.2-1.06 34.77-6.75.2 1.06z" fill="#b7b9bb"/><path d="m10.76 38.55-.21-1.06 34.76-6.76.22 1.07z" fill="#bdbfc1"/><path d="m10.55 37.49-.21-1.07 34.77-6.76.2 1.07z" fill="#c3c5c7"/><path d="m10.34 36.42-.2-1.07 34.77-6.76.2 1.07z" fill="#cacbcd"/><path d="m10.14 35.35-.21-1.06 34.77-6.76.21 1.06z" fill="#d0d1d3"/><path d="m9.93 34.29-.21-1.07 34.77-6.75.21 1.06z" fill="#d6d7d9"/><path d="m9.72 33.22-.21-1.07 34.77-6.76.21 1.08z" fill="#dcdedf"/><path d="m9.51 32.15-.2-1.07 34.77-6.75.2 1.06z" fill="#e3e4e5"/><path d="m9.31 31.08-.21-1.07 34.76-6.75.22 1.07z" fill="#e9eaeb"/><path d="m9.1 30.01-.21-1.05 34.77-6.77.2 1.07z" fill="#eff0f0"/><path d="m8.89 28.96-.2-1.07 34.76-6.76.21 1.06z" fill="#f6f6f6"/><path d="m8.69 27.89-.22-1.07 34.78-6.75.2 1.06z" fill="#fff"/></g><path d="m32 59.59h-16.21v-33.25h15.89c8.94 0 13.43 2.8 13.42 8.35 0 3-1.44 5.44-4.34 7.26a7.12 7.12 0 0 1 4.07 2.77 8.06 8.06 0 0 1 1.47 4.85q0 10.02-14.3 10.02z" fill="none"/><path d="m15 60.38v-34.82h16.68c9 0 14.21 2.84 14.21 9.15a8.73 8.73 0 0 1 -3.44 7 7.77 7.77 0 0 1 3 2.53 8.84 8.84 0 0 1 1.62 5.31c0 7.35-5.41 10.81-15.09 10.81z" fill="none"/><g clip-path="url(#i)" fill-rule="evenodd"><path d="m26.13 41.57-.06-.23 10.27-1.99.05.23z" fill="#231f20"/><path d="m26.07 41.34-.04-.22 10.27-2 .04.23z" fill="#2c2a2b"/><path d="m26.03 41.12-.05-.22 10.28-2.01.04.23z" fill="#353435"/><path d="m25.98 40.9-.04-.24 10.27-2 .05.23z" fill="#3e3d3f"/><path d="m25.94 40.66-.04-.23 10.27-2 .04.23z" fill="#454547"/><path d="m25.9 40.43-.05-.22 10.27-2 .05.22z" fill="#4c4c4e"/><path d="m25.85 40.21-.04-.24 10.26-1.99.05.23z" fill="#535355"/><path d="m25.81 39.97-.04-.23 10.26-1.99.04.23z" fill="#595a5c"/><path d="m25.77 39.74-.05-.23 10.27-1.99.04.23z" fill="#606163"/><path d="m25.72 39.51-.05-.23 10.28-1.99.04.23z" fill="#666769"/><path d="m25.67 39.28-.04-.22 10.28-1.99.04.22z" fill="#6c6d70"/><path d="m25.63 39.06-.05-.23 10.28-2 .05.24z" fill="#727376"/><path d="m25.58 38.83-.04-.23 10.26-2 .06.23z" fill="#77797c"/><path d="m25.54 38.6-.04-.23 10.27-2 .03.23z" fill="#7d7f81"/><path d="m25.5 38.37-.05-.22 10.28-2 .04.22z" fill="#828487"/><path d="m25.45 38.15-.04-.23 10.27-2 .05.23z" fill="#888a8d"/><path d="m25.41 37.92-.04-.24 10.26-1.99.05.23z" fill="#8e9092"/><path d="m25.37 37.68-.04-.22 10.26-2 .04.23z" fill="#939598"/><path d="m25.33 37.46-.05-.22 10.26-2.01.05.23z" fill="#999b9e"/><path d="m25.28 37.24-.05-.24 10.27-2 .04.23z" fill="#9fa1a4"/><path d="m25.23 37-.04-.24 10.26-1.99.05.23z" fill="#a5a7a9"/><path d="m25.19 36.76-.04-.21 10.26-2 .04.22z" fill="#abadaf"/><path d="m25.15 36.55-.05-.24 10.26-1.99.05.23z" fill="#b1b3b5"/><path d="m25.1 36.31-.05-.23 10.27-1.99.04.23z" fill="#b7b9bb"/><path d="m25.05 36.08-.04-.23 10.26-1.98.05.22z" fill="#bdbfc1"/><path d="m25.01 35.85-.05-.23 10.27-1.99.04.24z" fill="#c3c5c7"/><path d="m24.96 35.62-.04-.22 10.26-1.99.05.22z" fill="#cacbcd"/><path d="m24.92 35.4-.04-.23 10.26-2 .04.24z" fill="#d0d1d3"/><path d="m24.88 35.17-.05-.23 10.27-1.99.04.22z" fill="#d6d7d9"/><path d="m24.83 34.94-.05-.22 10.27-2.01.05.24z" fill="#dcdedf"/><path d="m24.78 34.72-.04-.24 10.27-1.99.04.22z" fill="#e3e4e5"/><path d="m24.74 34.48-.04-.22 10.27-2 .04.23z" fill="#e9eaeb"/><path d="m24.7 34.26-.05-.23 10.27-2 .05.23z" fill="#eff0f0"/><path d="m24.65 34.03-.05-.23 10.28-2 .04.23z" fill="#f6f6f6"/><path d="m24.6 33.8-.04-.23 10.27-2 .05.23z" fill="#fff"/></g><path d="m30.52 34.1h-3.84v5.53h4.53c2.49 0 3.74-1 3.74-2.91a2.17 2.17 0 0 0 -1.34-2.31 9.6 9.6 0 0 0 -3.09-.31z" fill="none"/><path d="m33.89 33.69a3 3 0 0 1 1.86 3c0 2.55-1.82 3.71-4.54 3.71h-5.32v-7.09h4.63a10.24 10.24 0 0 1 3.37.38z" fill="none"/><g clip-path="url(#j)" fill-rule="evenodd"><path d="m26.15 53.86-.06-.24 11.45-2.22.05.24z" fill="#231f20"/><path d="m26.09 53.62-.05-.24 11.45-2.23.05.25z" fill="#2c2a2b"/><path d="m26.04 53.38-.04-.26 11.45-2.22.04.25z" fill="#353435"/><path d="m26 53.12-.06-.24 11.46-2.23.05.25z" fill="#3e3d3f"/><path d="m25.94 52.88-.04-.25 11.44-2.23.06.25z" fill="#454547"/><path d="m25.9 52.63-.06-.25 11.47-2.23.03.25z" fill="#4c4c4e"/><path d="m25.84 52.38-.04-.25 11.45-2.22.06.24z" fill="#535355"/><path d="m25.8 52.13-.05-.24 11.45-2.24.05.26z" fill="#595a5c"/><path d="m25.75 51.89-.04-.26 11.44-2.22.05.24z" fill="#606163"/><path d="m25.71 51.63-.05-.25 11.43-2.21.06.24z" fill="#666769"/><path d="m25.66 51.38-.05-.24 11.45-2.23.03.26z" fill="#6c6d70"/><path d="m25.61 51.14-.05-.25 11.45-2.23.05.25z" fill="#727376"/><path d="m25.56 50.89-.04-.24 11.44-2.23.05.24z" fill="#77797c"/><path d="m25.52 50.65-.06-.26 11.45-2.23.05.26z" fill="#7d7f81"/><path d="m25.46 50.39-.04-.25 11.44-2.22.05.24z" fill="#828487"/><path d="m25.42 50.14-.04-.24 11.44-2.23.04.25z" fill="#888a8d"/><path d="m25.38 49.9-.05-.25 11.44-2.23.05.25z" fill="#8e9092"/><path d="m25.33 49.65-.05-.25 11.44-2.23.05.25z" fill="#939598"/><path d="m25.28 49.4-.05-.24 11.43-2.24.06.25z" fill="#999b9e"/><path d="m25.23 49.16-.05-.27 11.45-2.21.03.24z" fill="#9fa1a4"/><path d="m25.18 48.89-.06-.24 11.46-2.22.05.25z" fill="#a5a7a9"/><path d="m25.12 48.65-.05-.24 11.46-2.23.05.25z" fill="#abadaf"/><path d="m25.07 48.41-.04-.25 11.45-2.22.05.24z" fill="#b1b3b5"/><path d="m25.03 48.16-.05-.25 11.45-2.22.05.25z" fill="#b7b9bb"/><path d="m24.98 47.91-.05-.25 11.45-2.22.05.25z" fill="#bdbfc1"/><path d="m24.93 47.66-.04-.24 11.45-2.23.04.25z" fill="#c3c5c7"/><path d="m24.89 47.42-.06-.25 11.46-2.23.05.25z" fill="#cacbcd"/><path d="m24.83 47.17-.05-.25 11.46-2.23.05.25z" fill="#d0d1d3"/><path d="m24.78 46.92-.05-.25 11.46-2.22.05.24z" fill="#d6d7d9"/><path d="m24.73 46.67-.04-.25 11.45-2.23.05.26z" fill="#dcdedf"/><path d="m24.69 46.42-.05-.24 11.46-2.24.04.25z" fill="#e3e4e5"/><path d="m24.64 46.18-.04-.27 11.44-2.21.06.24z" fill="#e9eaeb"/><path d="m24.6 45.91-.05-.23 11.44-2.23.05.25z" fill="#eff0f0"/><path d="m24.55 45.68-.05-.26 11.45-2.22.04.25z" fill="#f6f6f6"/><path d="m24.5 45.42-.05-.24 11.46-2.22.04.24z" fill="#fff"/></g><path d="m30.15 45.69h-3.47v6.13h4.76c3.14 0 4.72-1 4.71-3a2.54 2.54 0 0 0 -1.72-2.63 13 13 0 0 0 -4.28-.5z" fill="none"/><path d="m34.73 45.41a3.34 3.34 0 0 1 2.21 3.38c0 2.74-2.28 3.83-5.5 3.83h-5.55v-7.72h4.26a14.46 14.46 0 0 1 4.58.51z" fill="none"/><g clip-path="url(#k)" fill-rule="evenodd"><path d="m34.24 32.63.03.18-8.58 1.67-.05-.19z" fill="#231f20"/><path d="m34.27 32.81.03.18-8.58 1.67-.03-.18z" fill="#2c2a2b"/><path d="m34.3 32.99.03.18-8.58 1.68-.03-.19z" fill="#353435"/><path d="m34.33 33.17.04.19-8.59 1.66-.03-.17z" fill="#3e3d3f"/><path d="m34.37 33.36.04.17-8.58 1.67-.05-.18z" fill="#454547"/><path d="m34.41 33.53.04.19-8.58 1.66-.04-.18z" fill="#4c4c4e"/><path d="m34.45 33.72.03.17-8.58 1.67-.03-.18z" fill="#535355"/><path d="m34.48 33.89.04.18-8.59 1.67-.03-.18z" fill="#595a5c"/><path d="m34.52 34.07.03.2-8.59 1.66-.03-.19z" fill="#606163"/><path d="m34.55 34.27.04.17-8.59 1.67-.04-.18z" fill="#666769"/><path d="m34.59 34.44.02.18-8.57 1.66-.04-.17z" fill="#6c6d70"/><path d="m34.61 34.62.05.19-8.59 1.66-.03-.19z" fill="#727376"/><path d="m34.66 34.81.02.17-8.57 1.67-.04-.18z" fill="#77797c"/><path d="m34.68 34.98.04.18-8.57 1.67-.04-.18z" fill="#7d7f81"/><path d="m34.72 35.16.04.19-8.59 1.66-.02-.18z" fill="#828487"/><path d="m34.76 35.35.02.18-8.57 1.66-.04-.18z" fill="#888a8d"/><path d="m34.78 35.53.05.18-8.57 1.66-.05-.18z" fill="#8e9092"/><path d="m34.83 35.71.03.17-8.58 1.67-.02-.18z" fill="#939598"/><path d="m34.86 35.88.04.18-8.58 1.67-.04-.18z" fill="#999b9e"/><path d="m34.9 36.06.03.18-8.57 1.67-.04-.18z" fill="#9fa1a4"/><path d="m34.93 36.24.04.2-8.58 1.65-.03-.18z" fill="#a5a7a9"/><path d="m34.97 36.44.03.17-8.57 1.66-.04-.18z" fill="#abadaf"/><path d="m35 36.61.04.18-8.59 1.66-.02-.18z" fill="#b1b3b5"/><path d="m35.04 36.79.04.18-8.59 1.66-.04-.18z" fill="#b7b9bb"/><path d="m35.08 36.97.03.18-8.59 1.67-.03-.19z" fill="#bdbfc1"/><path d="m35.11 37.15.04.19-8.58 1.65-.05-.17z" fill="#c3c5c7"/><path d="m35.15 37.34.03.17-8.58 1.67-.03-.19z" fill="#cacbcd"/><path d="m35.18 37.51.03.18-8.58 1.66-.03-.17z" fill="#d0d1d3"/><path d="m35.21 37.69.05.18-8.59 1.67-.04-.19z" fill="#d6d7d9"/><path d="m35.26 37.87.03.19-8.59 1.66-.03-.18z" fill="#dcdedf"/><path d="m35.29 38.06.03.18-8.58 1.67-.04-.19z" fill="#e3e4e5"/><path d="m35.32 38.24.04.17-8.58 1.68-.04-.18z" fill="#e9eaeb"/><path d="m35.36 38.41.04.19-8.6 1.66-.02-.17z" fill="#eff0f0"/><path d="m35.4 38.6.02.18-8.57 1.67-.05-.19z" fill="#f6f6f6"/><path d="m35.42 38.78.04.18-8.58 1.66-.03-.17z" fill="#fff"/></g><path d="m30.52 34.1a9.6 9.6 0 0 1 3.09.33 2.17 2.17 0 0 1 1.39 2.31c0 1.93-1.25 2.91-3.74 2.91h-4.58v-5.54z" fill="none"/><path d="m33.32 35.17c.49.18.84.59.84 1.57 0 1.33-.7 2.11-2.95 2.11h-3.74v-4h3.05a9 9 0 0 1 2.8.32z" fill="none"/><g clip-path="url(#l)" fill-rule="evenodd"><path d="m35.3 44.01.04.2-9.77 1.91-.04-.21z" fill="#231f20"/><path d="m35.34 44.21.03.2-9.75 1.91-.05-.2z" fill="#2c2a2b"/><path d="m35.37 44.41.04.2-9.75 1.9-.04-.19z" fill="#353435"/><path d="m35.41 44.61.04.2-9.76 1.91-.03-.21z" fill="#3e3d3f"/><path d="m35.45 44.81.04.21-9.76 1.89-.04-.19z" fill="#454547"/><path d="m35.49 45.02.05.19-9.77 1.9-.04-.2z" fill="#4c4c4e"/><path d="m35.54 45.21.03.2-9.76 1.9-.04-.2z" fill="#535355"/><path d="m35.57 45.41.04.2-9.77 1.9-.03-.2z" fill="#595a5c"/><path d="m35.61 45.61.03.2-9.76 1.91-.04-.21z" fill="#606163"/><path d="m35.64 45.81.05.2-9.76 1.9-.05-.19z" fill="#666769"/><path d="m35.69 46.01.03.21-9.76 1.88-.03-.19z" fill="#6c6d70"/><path d="m35.72 46.22.05.2-9.77 1.88-.04-.2z" fill="#727376"/><path d="m35.77 46.42.04.2-9.77 1.9-.04-.22z" fill="#77797c"/><path d="m35.81 46.62.04.2-9.77 1.9-.04-.2z" fill="#7d7f81"/><path d="m35.85 46.82.04.2-9.76 1.9-.05-.2z" fill="#828487"/><path d="m35.89 47.02.03.19-9.76 1.91-.03-.2z" fill="#888a8d"/><path d="m35.92 47.21.04.21-9.75 1.89-.05-.19z" fill="#8e9092"/><path d="m35.96 47.42.04.2-9.77 1.9-.02-.21z" fill="#939598"/><path d="m36 47.62.04.2-9.76 1.89-.05-.19z" fill="#999b9e"/><path d="m36.04 47.82.05.2-9.77 1.89-.04-.2z" fill="#9fa1a4"/><path d="m36.09 48.02.03.2-9.76 1.9-.04-.21z" fill="#a5a7a9"/><path d="m36.12 48.22.04.2-9.77 1.9-.03-.2z" fill="#abadaf"/><path d="m36.16 48.42.05.2-9.78 1.9-.04-.2z" fill="#b1b3b5"/><path d="m36.21 48.62.03.19-9.76 1.91-.05-.2z" fill="#b7b9bb"/><path d="m36.24 48.81.03.21-9.76 1.9-.03-.2z" fill="#bdbfc1"/><path d="m36.27 49.02.05.2-9.77 1.89-.04-.19z" fill="#c3c5c7"/><path d="m36.32 49.22.03.19-9.76 1.91-.04-.21z" fill="#cacbcd"/><path d="m36.35 49.41.04.21-9.76 1.9-.04-.2z" fill="#d0d1d3"/><path d="m36.39 49.62.04.2-9.76 1.9-.04-.2z" fill="#d6d7d9"/><path d="m36.43 49.82.04.2-9.76 1.9-.04-.2z" fill="#dcdedf"/><path d="m36.47 50.02.04.2-9.76 1.9-.04-.2z" fill="#e3e4e5"/><path d="m36.51 50.22.04.2-9.77 1.9-.03-.2z" fill="#e9eaeb"/><path d="m36.55 50.42.04.21-9.77 1.89-.04-.2z" fill="#eff0f0"/><path d="m36.59 50.63.04.2-9.77 1.9-.04-.21z" fill="#f6f6f6"/><path d="m36.63 50.83.03.19-9.76 1.9-.04-.19z" fill="#fff"/></g><path d="m30.15 45.69a13 13 0 0 1 4.28.47 2.54 2.54 0 0 1 1.72 2.63c0 2-1.57 3-4.71 3h-4.76v-6.1z" fill="none"/><path d="m34.16 46.89a1.79 1.79 0 0 1 1.2 1.9c0 1.31-.87 2.25-3.92 2.25h-4v-4.55h2.67a13.38 13.38 0 0 1 4.05.4z" fill="none"/><path d="m32 59.59h-16.21v-33.25h15.89c8.94 0 13.43 2.8 13.42 8.35 0 3-1.44 5.44-4.34 7.26a7.12 7.12 0 0 1 4.07 2.77 8.06 8.06 0 0 1 1.47 4.85q0 10.02-14.3 10.02zm-1.48-25.49h-3.84v5.53h4.53c2.49 0 3.74-1 3.74-2.91a2.17 2.17 0 0 0 -1.34-2.31 9.6 9.6 0 0 0 -3.09-.31zm-.37 11.59h-3.47v6.13h4.76c3.14 0 4.72-1 4.71-3a2.54 2.54 0 0 0 -1.72-2.63 13 13 0 0 0 -4.28-.5z" fill="#faa820" fill-rule="evenodd"/><g clip-path="url(#m)"><path d="m52.17 65.87-.22-1.12 34.17-6.64.21 1.11z" fill="#231f20"/><path d="m51.95 64.75-.22-1.12 34.17-6.63.22 1.11z" fill="#2c2a2b"/><path d="m51.73 63.63-.21-1.11 34.16-6.63.22 1.11z" fill="#353435"/><path d="m51.52 62.52-.21-1.12 34.15-6.64.22 1.13z" fill="#3e3d3f"/><path d="m51.31 61.4-.22-1.11 34.15-6.64.22 1.11z" fill="#454547"/><path d="m51.09 60.29-.22-1.11 34.16-6.65.21 1.12z" fill="#4c4c4e"/><path d="m50.87 59.18-.21-1.12 34.15-6.65.22 1.12z" fill="#535355"/><path d="m50.66 58.06-.23-1.12 34.17-6.63.21 1.1z" fill="#595a5c"/><path d="m50.43 56.94-.21-1.11 34.16-6.64.22 1.12z" fill="#606163"/><path d="m50.22 55.83-.21-1.12 34.16-6.64.21 1.12z" fill="#666769"/><path d="m50.01 54.71-.22-1.12 34.16-6.64.22 1.12z" fill="#6c6d70"/><path d="m49.79 53.59-.22-1.11 34.15-6.64.23 1.11z" fill="#727376"/><path d="m49.57 52.48-.22-1.11 34.15-6.64.22 1.11z" fill="#77797c"/><path d="m49.35 51.37-.21-1.12 34.16-6.64.2 1.12z" fill="#7d7f81"/><path d="m49.14 50.25-.22-1.12 34.16-6.64.22 1.12z" fill="#828487"/><path d="m48.92 49.13-.22-1.11 34.15-6.64.23 1.11z" fill="#888a8d"/><path d="m48.7 48.02-.22-1.12 34.17-6.64.2 1.12z" fill="#8e9092"/><path d="m48.48 46.9-.21-1.11 34.15-6.64.23 1.11z" fill="#939598"/><path d="m48.27 45.79-.21-1.12 34.14-6.64.22 1.12z" fill="#999b9e"/><path d="m48.06 44.67-.23-1.12 34.17-6.63.2 1.11z" fill="#9fa1a4"/><path d="m47.83 43.55-.21-1.12 34.15-6.63.23 1.12z" fill="#a5a7a9"/><path d="m47.62 42.43-.23-1.11 34.17-6.63.21 1.11z" fill="#abadaf"/><path d="m47.39 41.32-.21-1.11 34.16-6.64.22 1.12z" fill="#b1b3b5"/><path d="m47.18 40.21-.22-1.11 34.17-6.64.21 1.11z" fill="#b7b9bb"/><path d="m46.96 39.1-.21-1.12 34.16-6.64.22 1.12z" fill="#bdbfc1"/><path d="m46.75 37.98-.22-1.11 34.16-6.65.22 1.12z" fill="#c3c5c7"/><path d="m46.53 36.87-.22-1.13 34.16-6.64.22 1.12z" fill="#cacbcd"/><path d="m46.31 35.74-.21-1.11 34.17-6.65.2 1.12z" fill="#d0d1d3"/><path d="m46.1 34.63-.22-1.12 34.16-6.64.23 1.11z" fill="#d6d7d9"/><path d="m45.88 33.51-.22-1.11 34.16-6.64.22 1.11z" fill="#dcdedf"/><path d="m45.66 32.4-.21-1.12 34.16-6.64.21 1.12z" fill="#e3e4e5"/><path d="m45.45 31.28-.21-1.11 34.15-6.65.22 1.12z" fill="#e9eaeb"/><path d="m45.24 30.17-.23-1.12 34.17-6.64.21 1.11z" fill="#eff0f0"/><path d="m45.01 29.05-.21-1.12 34.17-6.63.21 1.11z" fill="#f6f6f6"/><path d="m44.8 27.93-.22-1.11 34.16-6.64.23 1.12z" fill="#fff"/></g><path d="m79.63 59.59h-27.75v-33.25h27.11v7.76l-16.2.01v4.75h13.71v7.76h-13.71v5.2h16.85z" fill="#faa820" fill-rule="evenodd"/><g clip-path="url(#n)"><path d="m85.34 66.68-.21-1.13 38.95-7.59.22 1.15z" fill="#231f20"/><path d="m85.13 65.55-.23-1.14 38.96-7.58.22 1.13z" fill="#2c2a2b"/><path d="m84.9 64.41-.23-1.15 38.98-7.57.21 1.14z" fill="#353435"/><path d="m84.67 63.26-.22-1.13 38.97-7.58.23 1.14z" fill="#3e3d3f"/><path d="m84.45 62.13-.22-1.14 38.97-7.58.22 1.14z" fill="#454547"/><path d="m84.23 60.99-.22-1.15 38.98-7.57.21 1.14z" fill="#4c4c4e"/><path d="m84.01 59.84-.22-1.13 38.96-7.57.24 1.13z" fill="#535355"/><path d="m83.79 58.71-.23-1.14 38.97-7.57.22 1.14z" fill="#595a5c"/><path d="m83.56 57.57-.22-1.13 38.97-7.58.22 1.14z" fill="#606163"/><path d="m83.34 56.44-.22-1.14 38.97-7.58.22 1.14z" fill="#666769"/><path d="m83.12 55.3-.21-1.15 38.96-7.56.22 1.13z" fill="#6c6d70"/><path d="m82.91 54.15-.23-1.14 38.96-7.57.23 1.15z" fill="#727376"/><path d="m82.68 53.01-.22-1.13 38.98-7.58.2 1.14z" fill="#77797c"/><path d="m82.46 51.88-.22-1.14 38.96-7.57.24 1.13z" fill="#7d7f81"/><path d="m82.24 50.74-.21-1.15 38.96-7.57.21 1.15z" fill="#828487"/><path d="m82.03 49.59-.23-1.13 38.96-7.57.23 1.13z" fill="#888a8d"/><path d="m81.8 48.46-.23-1.14 38.97-7.58.22 1.15z" fill="#8e9092"/><path d="m81.57 47.32-.21-1.14 38.95-7.57.23 1.13z" fill="#939598"/><path d="m81.36 46.18-.23-1.14 38.97-7.57.21 1.14z" fill="#999b9e"/><path d="m81.13 45.04-.22-1.14 38.96-7.57.23 1.14z" fill="#9fa1a4"/><path d="m80.91 43.9-.23-1.13 38.98-7.58.21 1.14z" fill="#a5a7a9"/><path d="m80.68 42.77-.21-1.14 38.96-7.58.23 1.14z" fill="#abadaf"/><path d="m80.47 41.63-.21-1.14 38.95-7.58.22 1.14z" fill="#b1b3b5"/><path d="m80.26 40.49-.24-1.15 38.98-7.57.21 1.14z" fill="#b7b9bb"/><path d="m80.02 39.34-.21-1.13 38.97-7.58.22 1.14z" fill="#bdbfc1"/><path d="m79.81 38.21-.22-1.14 38.96-7.57.23 1.13z" fill="#c3c5c7"/><path d="m79.59 37.07-.23-1.14 38.97-7.57.22 1.14z" fill="#cacbcd"/><path d="m79.36 35.93-.21-1.13 38.96-7.58.22 1.14z" fill="#d0d1d3"/><path d="m79.15 34.8-.23-1.14 38.96-7.58.23 1.14z" fill="#d6d7d9"/><path d="m78.92 33.65-.22-1.13 38.97-7.58.21 1.14z" fill="#dcdedf"/><path d="m78.7 32.52-.23-1.15 38.97-7.57.23 1.14z" fill="#e3e4e5"/><path d="m78.47 31.37-.22-1.14 38.97-7.57.22 1.14z" fill="#e9eaeb"/><path d="m78.25 30.23-.22-1.14 38.96-7.57.23 1.14z" fill="#eff0f0"/><path d="m78.03 29.09-.21-1.13 38.96-7.57.21 1.13z" fill="#f6f6f6"/><path d="m77.82 27.96-.23-1.14 38.96-7.57.23 1.14z" fill="#fff"/></g><path d="m95.79 59.59h-10.89v-33.25h10.89v11.23l10.3-.01v-11.22h10.9v33.25h-10.9v-12.88h-10.3z" fill="#faa820" fill-rule="evenodd"/><g clip-path="url(#o)" fill-rule="evenodd"><path d="m123.41 66.6-.21-1.14 35.68-6.94.22 1.13z" fill="#231f20"/><path d="m123.2 65.46-.23-1.14 35.69-6.93.22 1.13z" fill="#2c2a2b"/><path d="m122.97 64.32-.22-1.13 35.69-6.94.22 1.14z" fill="#353435"/><path d="m122.75 63.19-.22-1.14 35.69-6.94.22 1.14z" fill="#3e3d3f"/><path d="m122.53 62.05-.22-1.14 35.69-6.94.22 1.14z" fill="#454547"/><path d="m122.31 60.91-.22-1.13 35.69-6.94.22 1.13z" fill="#4c4c4e"/><path d="m122.09 59.78-.23-1.14 35.71-6.94.21 1.14z" fill="#535355"/><path d="m121.86 58.64-.21-1.14 35.69-6.93.23 1.13z" fill="#595a5c"/><path d="m121.65 57.5-.23-1.13 35.7-6.95.22 1.15z" fill="#606163"/><path d="m121.42 56.37-.22-1.14 35.7-6.94.22 1.13z" fill="#666769"/><path d="m121.2 55.23-.22-1.14 35.7-6.94.22 1.14z" fill="#6c6d70"/><path d="m120.98 54.09-.22-1.13 35.69-6.94.23 1.13z" fill="#727376"/><path d="m120.76 52.96-.23-1.14 35.7-6.94.22 1.14z" fill="#77797c"/><path d="m120.53 51.82-.22-1.13 35.71-6.94.21 1.13z" fill="#7d7f81"/><path d="m120.31 50.69-.21-1.14 35.7-6.94.22 1.14z" fill="#828487"/><path d="m120.1 49.55-.23-1.14 35.7-6.94.23 1.14z" fill="#888a8d"/><path d="m119.87 48.41-.21-1.14 35.69-6.93.22 1.13z" fill="#8e9092"/><path d="m119.66 47.27-.23-1.14 35.7-6.93.22 1.14z" fill="#939598"/><path d="m119.43 46.13-.22-1.13 35.7-6.94.22 1.14z" fill="#999b9e"/><path d="m119.21 45-.21-1.14 35.69-6.94.22 1.14z" fill="#9fa1a4"/><path d="m119 43.86-.22-1.14 35.68-6.93.23 1.13z" fill="#a5a7a9"/><path d="m118.78 42.72-.23-1.12 35.7-6.94.21 1.13z" fill="#abadaf"/><path d="m118.55 41.6-.22-1.14 35.7-6.94.22 1.14z" fill="#b1b3b5"/><path d="m118.33 40.46-.22-1.15 35.7-6.93.22 1.14z" fill="#b7b9bb"/><path d="m118.11 39.31-.23-1.13 35.71-6.94.22 1.14z" fill="#bdbfc1"/><path d="m117.88 38.18-.21-1.14 35.69-6.93.23 1.13z" fill="#c3c5c7"/><path d="m117.67 37.04-.23-1.13 35.7-6.94.22 1.14z" fill="#cacbcd"/><path d="m117.44 35.91-.21-1.14 35.7-6.93.21 1.13z" fill="#d0d1d3"/><path d="m117.23 34.77-.23-1.13 35.7-6.94.23 1.14z" fill="#d6d7d9"/><path d="m117 33.64-.22-1.14 35.71-6.93.21 1.13z" fill="#dcdedf"/><path d="m116.78 32.5-.23-1.14 35.71-6.93.23 1.14z" fill="#e3e4e5"/><path d="m116.55 31.36-.2-1.13 35.68-6.94.23 1.14z" fill="#e9eaeb"/><path d="m116.35 30.23-.23-1.14 35.69-6.94.22 1.14z" fill="#eff0f0"/><path d="m116.12 29.09-.22-1.13 35.7-6.94.21 1.13z" fill="#f6f6f6"/><path d="m115.9 27.96-.22-1.14 35.69-6.94.23 1.14z" fill="#fff"/></g><path d="m137.21 48h-3.34v11.6h-10.87v-33.26h15.7c5.26 0 9 .73 11.31 2.17s3.41 3.89 3.41 7.3c0 4.41-1.85 7.11-5.58 8.13a9.84 9.84 0 0 1 4.15 2.4c1 1.23 1.48 3.37 1.47 6.41 0 2.59 0 4.09.1 4.54.12.85.49 1.28 1.06 1.28v1h-11a19.31 19.31 0 0 1 -.56-5.82c0-2.37-.39-3.92-1.15-4.67s-2.36-1.08-4.7-1.08z" fill="none"/><path d="m134.67 48.79v11.59h-12.48v-34.82h16.5c5.29 0 9.25.72 11.73 2.29s3.78 4.35 3.78 8c0 3.9-1.39 6.68-4.25 8.16a7.81 7.81 0 0 1 2.65 1.87c1.16 1.45 1.66 3.84 1.65 6.91 0 2.53 0 4 .09 4.42a1.28 1.28 0 0 0 .18.58h.89v2.6h-12.41l-.17-.52a19.64 19.64 0 0 1 -.61-6.09c0-2.38-.41-3.62-.92-4.09s-1.77-.89-4.11-.89z" fill="none"/><g clip-path="url(#p)" fill-rule="evenodd"><path d="m133.33 42.69-.05-.26 11.48-2.23.05.26z" fill="#231f20"/><path d="m133.28 42.43-.05-.26 11.48-2.23.05.26z" fill="#2c2a2b"/><path d="m133.23 42.17-.05-.26 11.48-2.24.05.27z" fill="#353435"/><path d="m133.18 41.91-.05-.26 11.47-2.23.06.25z" fill="#3e3d3f"/><path d="m133.13 41.65-.06-.26 11.49-2.22.04.25z" fill="#454547"/><path d="m133.07 41.39-.04-.26 11.47-2.23.06.27z" fill="#4c4c4e"/><path d="m133.03 41.13-.06-.26 11.5-2.24.03.27z" fill="#535355"/><path d="m132.97 40.87-.04-.25 11.48-2.24.06.25z" fill="#595a5c"/><path d="m132.93 40.62-.05-.26 11.48-2.24.05.26z" fill="#606163"/><path d="m132.88 40.36-.05-.27 11.48-2.23.05.26z" fill="#666769"/><path d="m132.83 40.09-.05-.26 11.47-2.23.06.26z" fill="#6c6d70"/><path d="m132.78 39.83-.05-.26 11.48-2.24.04.27z" fill="#727376"/><path d="m132.73 39.57-.06-.26 11.48-2.23.06.25z" fill="#77797c"/><path d="m132.67 39.31-.05-.25 11.49-2.24.04.26z" fill="#7d7f81"/><path d="m132.62 39.06-.04-.26 11.48-2.23.05.25z" fill="#828487"/><path d="m132.58 38.8-.06-.27 11.48-2.23.06.27z" fill="#888a8d"/><path d="m132.52 38.53-.05-.26 11.49-2.22.04.25z" fill="#8e9092"/><path d="m132.47 38.27-.05-.25 11.48-2.23.06.26z" fill="#939598"/><path d="m132.42 38.02-.05-.26 11.48-2.24.05.27z" fill="#999b9e"/><path d="m132.37 37.76-.05-.25 11.48-2.25.05.26z" fill="#9fa1a4"/><path d="m132.32 37.51-.05-.27 11.48-2.23.05.25z" fill="#a5a7a9"/><path d="m132.27 37.24-.05-.26 11.48-2.23.05.26z" fill="#abadaf"/><path d="m132.22 36.98-.05-.26 11.48-2.24.05.27z" fill="#b1b3b5"/><path d="m132.17 36.72-.05-.25 11.48-2.24.05.25z" fill="#b7b9bb"/><path d="m132.12 36.47-.05-.26 11.48-2.23.05.25z" fill="#bdbfc1"/><path d="m132.07 36.21-.05-.27 11.48-2.23.05.27z" fill="#c3c5c7"/><path d="m132.02 35.94-.05-.25 11.48-2.24.05.26z" fill="#cacbcd"/><path d="m131.97 35.69-.06-.27 11.49-2.23.05.26z" fill="#d0d1d3"/><path d="m131.91 35.42-.03-.26 11.48-2.24.04.27z" fill="#d6d7d9"/><path d="m131.88 35.16-.06-.26 11.47-2.23.07.25z" fill="#dcdedf"/><path d="m131.82 34.9-.04-.25 11.47-2.24.04.26z" fill="#e3e4e5"/><path d="m131.78 34.65-.06-.26 11.48-2.24.05.26z" fill="#e9eaeb"/><path d="m131.72 34.39-.05-.27 11.48-2.24.05.27z" fill="#eff0f0"/><path d="m131.67 34.12-.05-.25 11.48-2.24.05.25z" fill="#f6f6f6"/><path d="m131.62 33.87-.06-.27 11.49-2.23.05.26z" fill="#fff"/></g><path d="m133.87 34.1v6.6h4.31c3.44 0 5.18-1 5.18-3.14q0-3.47-4.4-3.45z" fill="none"/><path d="m139 33.31c3.18 0 5.18 1.35 5.18 4.25s-2.47 3.93-6 3.93h-5.09v-8.18z" fill="none"/><g clip-path="url(#q)" fill-rule="evenodd"><path d="m142.44 32.44.04.21-9.79 1.9-.04-.21z" fill="#231f20"/><path d="m142.48 32.65.05.21-9.79 1.91-.05-.22z" fill="#2c2a2b"/><path d="m142.53 32.86.03.21-9.78 1.91-.04-.21z" fill="#353435"/><path d="m142.56 33.07.05.22-9.8 1.9-.03-.21z" fill="#3e3d3f"/><path d="m142.61 33.29.04.2-9.79 1.91-.05-.21z" fill="#454547"/><path d="m142.65 33.49.05.21-9.8 1.91-.04-.21z" fill="#4c4c4e"/><path d="m142.7 33.7.03.21-9.8 1.91-.03-.21z" fill="#535355"/><path d="m142.73 33.91.04.21-9.79 1.92-.05-.22z" fill="#595a5c"/><path d="m142.77 34.12.05.22-9.8 1.9-.04-.2z" fill="#606163"/><path d="m142.82 34.34.03.21-9.78 1.9-.05-.21z" fill="#666769"/><path d="m142.85 34.55.05.2-9.79 1.91-.04-.21z" fill="#6c6d70"/><path d="m142.9 34.75.03.23-9.79 1.9-.03-.22z" fill="#727376"/><path d="m142.93 34.98.05.21-9.8 1.89-.04-.2z" fill="#77797c"/><path d="m142.98 35.19.04.21-9.79 1.89-.05-.21z" fill="#7d7f81"/><path d="m143.02 35.4.04.21-9.79 1.9-.04-.22z" fill="#828487"/><path d="m143.06 35.61.04.2-9.79 1.92-.04-.22z" fill="#888a8d"/><path d="m143.1 35.81.04.23-9.78 1.89-.05-.2z" fill="#8e9092"/><path d="m143.14 36.04.04.19-9.79 1.92-.03-.22z" fill="#939598"/><path d="m143.18 36.23.05.22-9.8 1.91-.04-.21z" fill="#999b9e"/><path d="m143.23 36.45.04.21-9.8 1.9-.04-.2z" fill="#9fa1a4"/><path d="m143.27 36.66.04.22-9.79 1.9-.05-.22z" fill="#a5a7a9"/><path d="m143.31 36.88.05.21-9.8 1.89-.04-.2z" fill="#abadaf"/><path d="m143.36 37.09.03.2-9.79 1.91-.04-.22z" fill="#b1b3b5"/><path d="m143.39 37.29.04.22-9.79 1.91-.04-.22z" fill="#b7b9bb"/><path d="m143.43 37.51.04.21-9.79 1.91-.04-.21z" fill="#bdbfc1"/><path d="m143.47 37.72.03.21-9.78 1.91-.04-.21z" fill="#c3c5c7"/><path d="m143.5 37.93.06.22-9.8 1.9-.04-.21z" fill="#cacbcd"/><path d="m143.56 38.15.04.21-9.79 1.9-.05-.21z" fill="#d0d1d3"/><path d="m143.6 38.36.03.21-9.79 1.91-.03-.22z" fill="#d6d7d9"/><path d="m143.63 38.57.04.21-9.79 1.89-.04-.19z" fill="#dcdedf"/><path d="m143.67 38.78.05.2-9.79 1.92-.05-.23z" fill="#e3e4e5"/><path d="m143.72 38.98.04.22-9.79 1.91-.04-.21z" fill="#e9eaeb"/><path d="m143.76 39.2.04.22-9.79 1.89-.04-.2z" fill="#eff0f0"/><path d="m143.8 39.42.04.21-9.8 1.9-.03-.22z" fill="#f6f6f6"/><path d="m143.84 39.63.04.21-9.79 1.89-.05-.2z" fill="#fff"/></g><path d="m133.87 34.1h5.13q4.39 0 4.4 3.45c0 2.1-1.74 3.14-5.18 3.14h-4.31z" fill="none"/><path d="m139 34.89c2.68 0 3.6 1 3.6 2.67 0 1.35-1 2.35-4.38 2.36h-3.5v-5z" fill="none"/><path d="m137.21 48h-3.34v11.6h-10.87v-33.26h15.7c5.26 0 9 .73 11.31 2.17s3.41 3.89 3.41 7.3c0 4.41-1.85 7.11-5.58 8.13a9.84 9.84 0 0 1 4.15 2.4c1 1.23 1.48 3.37 1.47 6.41 0 2.59 0 4.09.1 4.54.12.85.49 1.28 1.06 1.28v1h-11a19.31 19.31 0 0 1 -.56-5.82c0-2.37-.39-3.92-1.15-4.67s-2.36-1.08-4.7-1.08zm-3.34-13.9v6.6h4.31c3.44 0 5.18-1 5.18-3.14q0-3.47-4.4-3.45z" fill="#faa820" fill-rule="evenodd"/><g clip-path="url(#r)" fill-rule="evenodd"><path d="m156.83 67.33-.2-1.08 35.79-6.97.21 1.1z" fill="#231f20"/><path d="m156.63 66.25-.22-1.1 35.79-6.96.22 1.09z" fill="#2c2a2b"/><path d="m156.41 65.15-.22-1.08 35.81-6.97.2 1.09z" fill="#353435"/><path d="m156.19 64.07-.21-1.11 35.8-6.95.22 1.09z" fill="#3e3d3f"/><path d="m155.98 62.96-.2-1.08 35.78-6.96.22 1.09z" fill="#454547"/><path d="m155.78 61.88-.22-1.1 35.8-6.95.2 1.09z" fill="#4c4c4e"/><path d="m155.56 60.78-.21-1.08 35.79-6.96.22 1.09z" fill="#535355"/><path d="m155.35 59.7-.22-1.1 35.81-6.96.2 1.1z" fill="#595a5c"/><path d="m155.13 58.6-.2-1.08 35.79-6.96.22 1.08z" fill="#606163"/><path d="m154.93 57.52-.22-1.1 35.8-6.95.21 1.09z" fill="#666769"/><path d="m154.71 56.42-.21-1.08 35.8-6.97.21 1.1z" fill="#6c6d70"/><path d="m154.5 55.34-.21-1.1 35.79-6.95.22 1.08z" fill="#727376"/><path d="m154.29 54.24-.22-1.08 35.8-6.97.21 1.1z" fill="#77797c"/><path d="m154.07 53.16-.21-1.09 35.8-6.97.21 1.09z" fill="#7d7f81"/><path d="m153.86 52.07-.21-1.09 35.8-6.97.21 1.09z" fill="#828487"/><path d="m153.65 50.98-.21-1.1 35.79-6.96.22 1.09z" fill="#888a8d"/><path d="m153.44 49.88-.21-1.09 35.79-6.96.21 1.09z" fill="#8e9092"/><path d="m153.23 48.79-.22-1.1 35.8-6.95.21 1.09z" fill="#939598"/><path d="m153.01 47.69-.2-1.08 35.79-6.96.21 1.09z" fill="#999b9e"/><path d="m152.81 46.61-.21-1.1 35.79-6.95.21 1.09z" fill="#9fa1a4"/><path d="m152.6 45.51-.22-1.09 35.8-6.95.21 1.09z" fill="#a5a7a9"/><path d="m152.38 44.42-.22-1.08 35.8-6.97.22 1.1z" fill="#abadaf"/><path d="m152.16 43.34-.2-1.09 35.79-6.96.21 1.08z" fill="#b1b3b5"/><path d="m151.96 42.25-.22-1.09 35.8-6.96.21 1.09z" fill="#b7b9bb"/><path d="m151.74 41.16-.2-1.09 35.79-6.98.21 1.11z" fill="#bdbfc1"/><path d="m151.54 40.07-.22-1.09 35.8-6.97.21 1.08z" fill="#c3c5c7"/><path d="m151.32 38.98-.21-1.1 35.8-6.96.21 1.09z" fill="#cacbcd"/><path d="m151.11 37.88-.21-1.09 35.79-6.96.22 1.09z" fill="#d0d1d3"/><path d="m150.9 36.79-.21-1.08 35.79-6.97.21 1.09z" fill="#d6d7d9"/><path d="m150.69 35.71-.22-1.1 35.8-6.95.21 1.08z" fill="#dcdedf"/><path d="m150.47 34.61-.22-1.09 35.8-6.96.22 1.1z" fill="#e3e4e5"/><path d="m150.25 33.52-.2-1.1 35.8-6.94.2 1.08z" fill="#e9eaeb"/><path d="m150.05 32.42-.21-1.08 35.79-6.97.22 1.11z" fill="#eff0f0"/><path d="m149.84 31.34-.22-1.09 35.81-6.96.2 1.08z" fill="#f6f6f6"/><path d="m149.62 30.25-.2-1.09 35.78-6.95.23 1.08z" fill="#fff"/></g><path d="m167.25 59.59h-10.65l11.91-33.25h11.08l11.91 33.25h-10.85l-1.29-4.39h-10.85z" fill="none"/><path d="m155.47 60.38 12.49-34.82h12.19l12.48 34.82h-12.56l-1.3-4.39h-9.66l-1.24 4.39z" fill="none"/><g clip-path="url(#s)" fill-rule="evenodd"><path d="m169.87 50.74-.09-.44 8.66-1.69.09.44z" fill="#231f20"/><path d="m169.78 50.3-.08-.46 8.65-1.68.09.45z" fill="#2c2a2b"/><path d="m169.7 49.84-.09-.45 8.65-1.69.09.46z" fill="#353435"/><path d="m169.61 49.39-.1-.45 8.67-1.69.08.45z" fill="#3e3d3f"/><path d="m169.51 48.94-.07-.46 8.65-1.68.09.45z" fill="#454547"/><path d="m169.44 48.48-.11-.45 8.67-1.68.09.45z" fill="#4c4c4e"/><path d="m169.33 48.03-.07-.45 8.65-1.68.09.45z" fill="#535355"/><path d="m169.26 47.58-.09-.45 8.65-1.69.09.46z" fill="#595a5c"/><path d="m169.17 47.13-.09-.45 8.66-1.68.08.44z" fill="#606163"/><path d="m169.08 46.68-.09-.46 8.67-1.68.08.46z" fill="#666769"/><path d="m168.99 46.22-.09-.46 8.65-1.67.11.45z" fill="#6c6d70"/><path d="m168.9 45.76-.08-.45 8.65-1.68.08.46z" fill="#727376"/><path d="m168.82 45.31-.09-.45 8.66-1.69.08.46z" fill="#77797c"/><path d="m168.73 44.86-.08-.45 8.65-1.69.09.45z" fill="#7d7f81"/><path d="m168.65 44.41-.1-.45 8.66-1.69.09.45z" fill="#828487"/><path d="m168.55 43.96-.09-.46 8.66-1.68.09.45z" fill="#888a8d"/><path d="m168.46 43.5-.08-.44 8.65-1.69.09.45z" fill="#8e9092"/><path d="m168.38 43.06-.09-.46 8.65-1.69.09.46z" fill="#939598"/><path d="m168.29 42.6-.08-.45 8.65-1.69.08.45z" fill="#999b9e"/><path d="m168.21 42.15-.09-.45 8.64-1.69.1.45z" fill="#9fa1a4"/><path d="m168.12 41.7-.1-.46 8.66-1.68.08.45z" fill="#a5a7a9"/><path d="m168.02 41.24-.08-.45 8.66-1.69.08.46z" fill="#abadaf"/><path d="m167.94 40.79-.09-.46 8.66-1.68.09.45z" fill="#b1b3b5"/><path d="m167.85 40.33-.1-.46 8.66-1.67.1.45z" fill="#b7b9bb"/><path d="m167.75 39.87-.07-.45 8.65-1.67.08.45z" fill="#bdbfc1"/><path d="m167.68 39.42-.1-.45 8.66-1.68.09.46z" fill="#c3c5c7"/><path d="m167.58 38.97-.08-.45 8.65-1.67.09.44z" fill="#cacbcd"/><path d="m167.5 38.52-.09-.45 8.66-1.68.08.46z" fill="#d0d1d3"/><path d="m167.41 38.07-.08-.45 8.64-1.68.1.45z" fill="#d6d7d9"/><path d="m167.33 37.62-.09-.45 8.65-1.69.08.46z" fill="#dcdedf"/><path d="m167.24 37.17-.1-.46 8.66-1.68.09.45z" fill="#e3e4e5"/><path d="m167.14 36.71-.08-.46 8.65-1.67.09.45z" fill="#e9eaeb"/><path d="m167.06 36.25-.09-.44 8.65-1.69.09.46z" fill="#eff0f0"/><path d="m166.97 35.81-.09-.46 8.66-1.67.08.44z" fill="#f6f6f6"/><path d="m166.88 35.35-.09-.46 8.66-1.67.09.46z" fill="#fff"/></g><path d="m177.47 48.27-3.51-11.9-3.37 11.9z" fill="none"/><path d="m169.54 49.06 4.4-15.54 4.58 15.54z" fill="none"/><g clip-path="url(#t)" fill-rule="evenodd"><path d="m175.11 36.13.06.36-6.63 1.28-.05-.35z" fill="#231f20"/><path d="m175.17 36.49.07.34-6.62 1.29-.08-.35z" fill="#2c2a2b"/><path d="m175.24 36.83.07.34-6.62 1.3-.07-.35z" fill="#353435"/><path d="m175.31 37.17.07.36-6.63 1.28-.06-.34z" fill="#3e3d3f"/><path d="m175.38 37.53.07.34-6.63 1.29-.07-.35z" fill="#454547"/><path d="m175.45 37.87.06.34-6.62 1.3-.07-.35z" fill="#4c4c4e"/><path d="m175.51 38.21.07.36-6.63 1.28-.06-.34z" fill="#535355"/><path d="m175.58 38.57.07.34-6.63 1.3-.07-.36z" fill="#595a5c"/><path d="m175.65 38.91.06.36-6.62 1.28-.07-.34z" fill="#606163"/><path d="m175.71 39.27.08.33-6.63 1.29-.07-.34z" fill="#666769"/><path d="m175.79 39.6.07.35-6.63 1.29-.07-.35z" fill="#6c6d70"/><path d="m175.86 39.95.06.35-6.63 1.28-.06-.34z" fill="#727376"/><path d="m175.92 40.3.07.34-6.63 1.29-.07-.35z" fill="#77797c"/><path d="m175.99 40.64.07.35-6.62 1.28-.08-.34z" fill="#7d7f81"/><path d="m176.06 40.99.07.34-6.64 1.3-.05-.36z" fill="#828487"/><path d="m176.13 41.33.06.35-6.63 1.3-.07-.35z" fill="#888a8d"/><path d="m176.19 41.68.07.35-6.63 1.28-.07-.33z" fill="#8e9092"/><path d="m176.26 42.03.07.35-6.63 1.28-.07-.35z" fill="#939598"/><path d="m176.33 42.38.07.34-6.64 1.29-.06-.35z" fill="#999b9e"/><path d="m176.4 42.72.05.35-6.61 1.29-.08-.35z" fill="#9fa1a4"/><path d="m176.45 43.07.07.35-6.62 1.29-.06-.35z" fill="#a5a7a9"/><path d="m176.52 43.42.08.34-6.64 1.3-.06-.35z" fill="#abadaf"/><path d="m176.6 43.76.06.36-6.62 1.28-.08-.34z" fill="#b1b3b5"/><path d="m176.66 44.12.07.34-6.63 1.28-.06-.34z" fill="#b7b9bb"/><path d="m176.73 44.46.07.34-6.63 1.29-.07-.35z" fill="#bdbfc1"/><path d="m176.8 44.8.06.36-6.63 1.28-.06-.35z" fill="#c3c5c7"/><path d="m176.86 45.16.08.34-6.64 1.29-.07-.35z" fill="#cacbcd"/><path d="m176.94 45.5.05.35-6.62 1.28-.07-.34z" fill="#d0d1d3"/><path d="m176.99 45.85.08.34-6.64 1.29-.06-.35z" fill="#d6d7d9"/><path d="m177.07 46.19.07.35-6.63 1.28-.08-.34z" fill="#dcdedf"/><path d="m177.14 46.54.06.35-6.62 1.28-.07-.35z" fill="#e3e4e5"/><path d="m177.2 46.89.08.35-6.65 1.28-.05-.35z" fill="#e9eaeb"/><path d="m177.28 47.24.06.34-6.63 1.28-.08-.34z" fill="#eff0f0"/><path d="m177.34 47.58.06.35-6.62 1.29-.07-.36z" fill="#f6f6f6"/><path d="m177.4 47.93.07.34-6.62 1.29-.07-.34z" fill="#fff"/></g><path d="m177.47 48.27h-6.88l3.37-11.9z" fill="none"/><path d="m171.64 47.49 2.32-8.27 2.45 8.27z" fill="none"/><path d="m167.26 59.59h-10.66l11.91-33.25h11.08l11.91 33.26h-10.85l-1.29-4.39h-10.85zm10.21-11.32-3.47-11.91-3.37 11.91z" fill="#faa820" fill-rule="evenodd"/></svg>